<svg width="30" height="30" viewBox="0 0 30 30" fill="none" xmlns="http://www.w3.org/2000/svg">
<path d="M25.7201 22.9492C24.9864 23.0664 24.2391 23.125 23.4783 23.125C21.0054 23.125 18.716 22.5391 16.6101 21.3672C14.5041 20.1953 12.8397 18.6003 11.6168 16.582C10.394 14.5638 9.78261 12.3698 9.78261 10C9.78261 7.5 10.4891 5.17578 11.9022 3.02734C9.1712 3.80859 6.93954 5.29948 5.2072 7.5C3.47486 9.70052 2.6087 12.2005 2.6087 15C2.6087 16.6927 2.95516 18.3105 3.6481 19.8535C4.34103 21.3965 5.26834 22.7246 6.43003 23.8379C7.59171 24.9512 8.97758 25.8398 10.5876 26.5039C12.1977 27.168 13.8859 27.5 15.6522 27.5C17.6087 27.5 19.4667 27.0996 21.2262 26.2988C22.9857 25.498 24.4837 24.3815 25.7201 22.9492ZM29.8573 21.2891C28.5802 23.9323 26.6542 26.0449 24.0795 27.627C21.5048 29.209 18.6957 30 15.6522 30C13.5326 30 11.5082 29.6029 9.5788 28.8086C7.64946 28.0143 5.98505 26.9466 4.5856 25.6055C3.18614 24.2643 2.07201 22.6693 1.24321 20.8203C0.414402 18.9714 0 17.0313 0 15C0 13.0078 0.390625 11.1035 1.17188 9.28711C1.95313 7.4707 3.01291 5.89844 4.35122 4.57031C5.68954 3.24219 7.2894 2.17123 9.15082 1.35742C11.0122 0.543621 12.9823 0.0976573 15.0611 0.0195323C15.659 -0.00650935 16.0734 0.247397 16.3043 0.781251C16.5489 1.31511 16.447 1.78386 15.9986 2.1875C14.8302 3.20313 13.9368 4.38477 13.3186 5.73242C12.7004 7.08008 12.3913 8.50261 12.3913 10C12.3913 11.9271 12.8872 13.7044 13.8791 15.332C14.8709 16.9596 16.216 18.2487 17.9144 19.1992C19.6128 20.1497 21.4674 20.625 23.4783 20.625C25.0815 20.625 26.6304 20.293 28.125 19.6289C28.6821 19.3945 29.1712 19.4792 29.5924 19.8828C29.7826 20.0651 29.9015 20.2865 29.949 20.5469C29.9966 20.8073 29.966 21.0547 29.8573 21.2891Z" fill="#063251"/>
</svg>
