<svg width="30" height="30" viewBox="0 0 30 30" fill="none" xmlns="http://www.w3.org/2000/svg">
<path d="M24.9994 15C24.9994 13.6942 24.7361 12.447 24.2095 11.2584C23.6829 10.0698 22.9712 9.04297 22.0742 8.17801C21.1773 7.31306 20.1125 6.62667 18.8799 6.11886C17.6474 5.61105 16.354 5.35714 14.9999 5.35714C13.6458 5.35714 12.3525 5.61105 11.1199 6.11886C9.88732 6.62667 8.82256 7.31306 7.92561 8.17801C7.02866 9.04297 6.31689 10.0698 5.7903 11.2584C5.26371 12.447 5.00041 13.6942 5.00041 15C5.00041 16.3058 5.26371 17.553 5.7903 18.7416C6.31689 19.9302 7.02866 20.957 7.92561 21.822C8.82256 22.6869 9.88732 23.3733 11.1199 23.8811C12.3525 24.3889 13.6458 24.6429 14.9999 24.6429C16.354 24.6429 17.6474 24.3889 18.8799 23.8811C20.1125 23.3733 21.1773 22.6869 22.0742 21.822C22.9712 20.957 23.6829 19.9302 24.2095 18.7416C24.7361 17.553 24.9994 16.3058 24.9994 15ZM29.7909 19.6373C29.7446 19.8047 29.6288 19.9163 29.4436 19.9721L24.3745 21.5792V26.702C24.3745 26.8806 24.2992 27.0257 24.1488 27.1373C23.9752 27.2489 23.8074 27.2712 23.6453 27.2042L18.5761 25.6306L15.4513 29.7824C15.3355 29.9275 15.1851 30 14.9999 30C14.8147 30 14.6643 29.9275 14.5485 29.7824L11.4237 25.6306L6.35451 27.2042C6.19248 27.2712 6.02466 27.2489 5.85106 27.1373C5.70061 27.0257 5.62538 26.8806 5.62538 26.702V21.5792L0.556184 19.9721C0.371008 19.9163 0.255273 19.8047 0.208979 19.6373C0.151111 19.4475 0.174258 19.2857 0.27842 19.1518L3.40327 15L0.27842 10.8482C0.174258 10.7031 0.151111 10.5413 0.208979 10.3627C0.255273 10.1953 0.371008 10.0837 0.556184 10.0279L5.62538 8.42076V3.29799C5.62538 3.11942 5.70061 2.97433 5.85106 2.86272C6.02466 2.75111 6.19248 2.72879 6.35451 2.79576L11.4237 4.36942L14.5485 0.217632C14.6527 0.0837032 14.8032 0.0167389 14.9999 0.0167389C15.1967 0.0167389 15.3471 0.0837032 15.4513 0.217632L18.5761 4.36942L23.6453 2.79576C23.8074 2.72879 23.9752 2.75111 24.1488 2.86272C24.2992 2.97433 24.3745 3.11942 24.3745 3.29799V8.42076L29.4436 10.0279C29.6288 10.0837 29.7446 10.1953 29.7909 10.3627C29.8487 10.5413 29.8256 10.7031 29.7214 10.8482L26.5966 15L29.7214 19.1518C29.8256 19.2857 29.8487 19.4475 29.7909 19.6373Z" fill="#AEDAF9"/>
</svg>
